<svg xmlns="http://www.w3.org/2000/svg" viewBox="0 0 1124 863"><defs><style>.cls-1{fill:#fff;}.cls-2{fill:#3973bc;}.cls-3,.cls-6{fill:#46d1ce;}.cls-4{fill:#5f6daa;fill-rule:evenodd;}.cls-5{fill:#51729e;}.cls-6,.cls-8{font-size:63.72px;font-family:Montserrat-Black, Montserrat;font-weight:800;}.cls-7{letter-spacing:-0.01em;}.cls-8{fill:#319b91;}</style></defs><g id="Слой_2" data-name="Слой 2"><g id="Слой_1-2" data-name="Слой 1"><rect class="cls-1" y="34" width="1124" height="829" rx="106.59"/><circle class="cls-2" cx="158.5" cy="107.5" r="18.5"/><circle class="cls-2" cx="237.5" cy="107.5" r="18.5"/><circle class="cls-2" cx="316.5" cy="107.5" r="18.5"/><circle class="cls-2" cx="813.5" cy="107.5" r="18.5"/><circle class="cls-2" cx="892.5" cy="107.5" r="18.5"/><circle class="cls-2" cx="971.5" cy="107.5" r="18.5"/><rect class="cls-3" x="143" width="30" height="113" rx="15"/><ellipse class="cls-1" cx="149.5" cy="57" rx="2.5" ry="22"/><rect class="cls-3" x="222" width="30" height="113" rx="15"/><ellipse class="cls-1" cx="228.5" cy="57" rx="2.5" ry="22"/><rect class="cls-3" x="301" width="30" height="113" rx="15"/><ellipse class="cls-1" cx="307.5" cy="57" rx="2.5" ry="22"/><rect class="cls-3" x="798" width="30" height="113" rx="15"/><ellipse class="cls-1" cx="804.5" cy="57" rx="2.5" ry="22"/><rect class="cls-3" x="878" width="30" height="113" rx="15"/><ellipse class="cls-1" cx="884.5" cy="57" rx="2.5" ry="22"/><rect class="cls-3" x="956" width="30" height="113" rx="15"/><ellipse class="cls-1" cx="962.5" cy="57" rx="2.5" ry="22"/><path class="cls-4" d="M600.94,205.09c1.49-6.51,3.68-11.36,4-18.46s-1.66-11.36-5.5-17.14c-6.78-10.21-16.55-15.87-28.87-16.46-13.28-.64-23.44,2.79-32.62,12.56-4.15,4.42-7.16,8.83-7.61,15.06-.38,5.16.75,15.23,2.45,20.13.41.71,2.48-7.91,2.68-8.51,1-3,2.08-5.36,3.28-8.25,2.14-5.13,4.78-10.26,9-14,8.85-7.76,23.49-11.21,33.66-4,9.91,7,16.81,17.28,15.23,29.89-.95,7.66-2.12,10.41-6.26,16.77-3.09,4.76-8,7.92-11,12,5.21.29,17.33-7.35,21.8-10.48,3.91-2.74,5.2-4.64,8.06-8.25a64.22,64.22,0,0,0,6-10.45c3.57-10.6,5.43-15.22,2-26.65C616.17,165.15,614,159,617,156c3.64-3.58,7.92-2.26,10,2.2,3.48,7.47,1.3,19.67-1.33,27.22-2.85,8.22-6.73,13.92-12,20.72-5,6.5-10.17,11.39-17.66,15.08-5.45,2.7-18.53,7.93-24.3,8.23,2.4-3.83,7.42-8.08,10.54-12.16,4.1-5.34,6.38-7.71,8.25-14.53s.18-11.95-3-17.94c-2.76-5.1-7.41-8.08-12.78-10-12.51-4.49-24.08-.11-29.12,12.38-2.2,5.45-3.89,11.08-6.37,16.42-1.18,2.54-6.82,12.93-9.7,12.93-.47-1,.6-11.15,0-14.46-.95-4.91-1.94-8-3.2-12.64-1.43-5.3-2.16-7.77-.58-13.27.61-2.11,4.75-9.88,4.49-11.15-3.14-1.26-10.32,10.9-11.33,13.66-2.67,7.3-1.16,13.74,1.17,20.85,2.78,8.52,2.11,12.67.4,21.15-1.65,8.18-8.37,14.53-8.26,16.59,5,0,12.57-5.34,16.6-8.26a36.07,36.07,0,0,0,11.67-14c2.48-5.68,3.12-14.3,5.4-20.15,2.66-6.84,9.34-9.08,16.21-9.47,7.91-.44,12.91,1.6,16.43,8.85,3,6.09,2.49,14.73-.78,20.62-1.88,3.4-8.91,11.29-12,13.64-2.47,1.87-4.65,4-7.31,5.52s-5.7,3-8,4.84c.84.71,18.19-3.05,20.39-3.6a123.59,123.59,0,0,0,18.33-6.12c11.66-5.15,20.28-10.51,29-20A72.56,72.56,0,0,0,634.76,177c3.25-14.58,1-27.43-5.22-40.76-4-8.5-16.2-21.9-26.08-22.78-6.78-.61-11.85,3.48-14.75,9.29-3.39,6.79-2.46,12.2,2.61,17.66,9.17,9.86,16.19,15.1,19.77,29.19a36.71,36.71,0,0,1-10.15,35.47Z"/><path class="cls-4" d="M498.24,153.27c0-4.13,2.09-14.26,4.8-17.43,2-2.33,1.59-.51,5.16,3.54,3.27,3.7,6.51,9.22,8.86,13.55.86,1.59,2.18,2.11-.1,2.82a45,45,0,0,1-4.34,1.3,59.06,59.06,0,0,1-9.26,1.64c-6.23.39-5.08,1-5.12-5.42Zm58.62-18.78a49.26,49.26,0,0,1-6.56,4.56c-2.18,1.28-1.81,1.25-2.89-.76-.68-1.27-1.33-2.19-1.94-3.57-2.33-5.27-4.43-11.86-4.59-17.63,2.86-.25,13.18,4.35,16.11,5.86,8.13,4.18,5.57,6.79-.13,11.54Zm-11.22,6.95-2.73,2.17a14.75,14.75,0,0,0,1.41,2.87l3.42-2c.88.54.68,2.21,2.31,1.29,2-1.13.57-1.58.52-2.65,0-.19,13.68-9.61,15.85-13.63,1.86-3.45-.07-4.07-2.54-5.79-8.56-5.94-11-6.78-20.43-9.08a37.6,37.6,0,0,1-4.06-.85c-.45-.26-2.65-1.69-2.58-2,1.83-1,14.39,3.18,16.83,4.11a49.73,49.73,0,0,1,13.56,8.25c6.21,5.08,8.87,5.21,2.12,11.19-11.12,9.84-28.27,17.85-41.65,23.7-5.71,2.5-28.19,10.92-33.28,9.57-1.57-4.43-.45-16,.19-21a41.74,41.74,0,0,1,1.89-9.6c.46-1.39,2.57-7.22,3.77-7.76l2.13,2c-.08.08-3.39,5.45-3.79,6.17a27.83,27.83,0,0,0-2.58,7.37,60.38,60.38,0,0,0-1,8.8c-.07,2-1,7.22,1.63,7.68,2.09.37,15-1.56,17.41-2.31l3.74-1.15c2.61-.84,1.42-1.08,2.94.6.53.59,2.76.35,2.15-1.36-.67-1.88,1.64-1.07,2.15-2.11,0-.18-1.57-2.78-2.07-2.75-1.63.07-1.39,2.23-2.81-.92-1.31-2.9-5.89-11.28-7.73-13.61-.51-.63-4.4-5.91-4.46-6.19.62-2,4.87-1.73,6.38-1.25,2,.65,3.4,2.6,5,3.77,3.63,2.71,4.64,7.63,6.93,10.54l2.54-.79c0-1.24-3.31-6.57-4.21-7.81-2.07-2.86-3.54-3.86-5.95-6.16-2.1-2-5.08-4.34-8.12-4-4.15.52-3.81,3.19-8.73,1.45,1.12-2.9,7.42-9.5,10.18-11.06a46.33,46.33,0,0,1,15.95-5.5c1.28-.18,8.21-1.27,8,.83-.25,2.48-4.46,2.35-6.67,4.22-5.38,4.53.07,19.62,3.35,24.12.91,1.25,2.19.29,3-.59s-.57-2.19-1-3.17c-2.15-4.33-5.57-11.68-4-16.48.46-1.38.93-2.44,2.41-2.89,4.53-1.4,1.16-.63,5.32,9.54.85,2.07,7.36,14,7.38,14.14Zm-10.59-33.36c-9.91.13-21.14,2.55-28.71,9.34-6.61,5.93-12.58,15.24-14,24.1a111,111,0,0,0-1.6,17.17c0,3,.16,6.13.27,9.11.11,2.78.56,5.24,4,4.74,2.23-.32,5.15-1.45,7.7-1.95s5.08-1.19,7.54-1.93c5-1.52,9.58-2.63,14.49-4.58,19.3-7.66,32.27-14.51,48.23-27.91,5-4.21,7-5.53,1.37-10.44a76.59,76.59,0,0,0-10.67-8.33c-8-4.94-19.08-9.45-28.57-9.32Z"/><path class="cls-4" d="M527.42,83.37c-3.76,1-6.62,10.1-7,13.6-.19,1.76-.47,7.76,1.43,8.6.85.38,3.79.28,4.8.16,4.77-.53.77-1.22.82-11.65,0-3,.08-6.53,4.27-4.55,3.55,1.68,7.59,7.81,9.58,11.19,4,6.84,2.74,7.43,11.14,9.45,4,1,5.62,1.15,3.3-3.55a63,63,0,0,0-3.84-6.55c-3-4.71-18.81-18.23-24.51-16.7Z"/><path class="cls-4" d="M485.51,109c-3.15.22-5.17.75-6,3.9-2.39,9-.43,16.15,2.91,24.82,2.16,5.58,5.31,11.61,7.84,1.77,1.79-6.94-2-8.89-5.43-13.89A17,17,0,0,1,482,118.5c-.39-4.14.11-5.68,4.4-4.22,3.93,1.33,10.08,8.3,11.7,8.34,2,0,4.23-3.11,5.53-4.42,2.84-2.85.49-3.81-2.39-4.86-4.39-1.62-11.12-4.67-15.74-4.36Z"/><path class="cls-4" d="M528.31,148.37c3-.59,4.18,5.06.87,5.61-2.9.48-4.36-4.92-.87-5.61Zm.45-3c-9,1.54-5.46,11.39-.17,11.91,7.22.72,7.2-13.11.17-11.91Z"/><path class="cls-4" d="M537.68,139.6a11.39,11.39,0,0,0-4.92,3.78c-.8,1.26,2.57,8.24,3.73,9.09.82.6,2.75-.49,3-1,.52-.93-1.06-1.89-1.58-2.63a21.73,21.73,0,0,1-1.52-2.92c-.72-1.6-1.13-1.82.45-2.6s1.82,0,2.48,1.22,2.34,5.2,4,4.68c2.37-.73-.16-4.22-.95-5.56s-2.52-4.84-4.68-4.1Z"/><rect class="cls-5" x="62" y="283" width="1003" height="4"/><rect class="cls-5" x="61" y="362" width="1003" height="4"/><text class="cls-6" transform="translate(87.09 348.23)">ПН</text><text class="cls-6" transform="translate(240.2 347.84)"><tspan class="cls-7">В</tspan><tspan x="46.71" y="0">Т</tspan></text><text class="cls-6" transform="translate(380.2 347.84)">СР</text><text class="cls-6" transform="translate(524.33 348.29)">ЧТ</text><text class="cls-6" transform="translate(669.33 348.29)">ПТ</text><text class="cls-8" transform="translate(806.95 348.61)">СБ</text><text class="cls-8" transform="translate(943.73 348.61)">ВС</text></g></g></svg>